<svg width="230" height="36" viewBox="0 0 230 36" fill="none" xmlns="http://www.w3.org/2000/svg">
<path d="M34.5938 35.2812C34 35.2812 33.7031 34.9062 33.7031 34.1562C33.7031 33.6875 33.875 33.3906 34.2188 33.2656C34.5625 33.1094 35.1094 33 35.8594 32.9375C36.3594 32.9062 36.75 32.8594 37.0312 32.7969C37.3438 32.7344 37.6406 32.625 37.9219 32.4688C38.2344 32.3125 38.4531 32.0781 38.5781 31.7656C38.7344 31.4219 38.8125 31 38.8125 30.5V20.0938C38.8125 15.25 38.7656 12.6875 38.6719 12.4062C38.6406 12.2188 38.5312 12.125 38.3438 12.125C38.125 12.125 37.9062 12.3125 37.6875 12.6875C36.4688 14.6562 34.8594 17.4531 32.8594 21.0781C30.8906 24.6719 29.1719 27.8438 27.7031 30.5938C26.2344 33.3438 25.3906 34.8594 25.1719 35.1406C24.8594 35.5156 24.5 35.7031 24.0938 35.7031C23.5312 35.7031 22.9688 35.125 22.4062 33.9688C20.8438 30.75 19.0469 27.3594 17.0156 23.7969C15.0156 20.2344 13.375 17.4219 12.0938 15.3594C10.8125 13.2969 10.0938 12.2188 9.9375 12.125C9.90625 12.0938 9.85938 12.0781 9.79688 12.0781C9.67188 12.0781 9.60938 12.1562 9.60938 12.3125C9.42188 15.6875 9.32812 19.0156 9.32812 22.2969C9.32812 25.0156 9.39062 27.875 9.51562 30.875C9.57812 31.7812 9.70312 32.3125 9.89062 32.4688C10.2031 32.6875 10.7188 32.7969 11.4375 32.7969C12.1875 32.7969 12.8125 32.8906 13.3125 33.0781C13.8438 33.2344 14.1094 33.6094 14.1094 34.2031C14.1094 34.9219 13.8281 35.2812 13.2656 35.2812C13.2344 35.2812 13.1094 35.2656 12.8906 35.2344C12.6719 35.2344 12.375 35.2188 12 35.1875C11.6562 35.1562 11.2656 35.125 10.8281 35.0938C10.3906 35.0625 9.85938 35.0312 9.23438 35C8.64062 35 8.0625 35 7.5 35C6.9375 35 6.34375 35 5.71875 35C5.125 35.0312 4.60938 35.0625 4.17188 35.0938C3.73438 35.125 3.32812 35.1562 2.95312 35.1875C2.60938 35.2188 2.32812 35.2344 2.10938 35.2344C1.89062 35.2656 1.76562 35.2812 1.73438 35.2812C1.14062 35.2812 0.84375 34.9375 0.84375 34.25C0.84375 34.0312 0.859375 33.8594 0.890625 33.7344C0.953125 33.5781 1.03125 33.4531 1.125 33.3594C1.25 33.2344 1.35938 33.1562 1.45312 33.125C1.57812 33.0625 1.76562 33.0156 2.01562 32.9844C2.26562 32.9219 2.46875 32.875 2.625 32.8438C2.8125 32.8125 3.09375 32.7812 3.46875 32.75C3.84375 32.7188 4.15625 32.6875 4.40625 32.6562C4.65625 32.625 4.875 32.5781 5.0625 32.5156C5.25 32.4219 5.39062 32.3438 5.48438 32.2812C5.57812 32.1875 5.65625 32.0469 5.71875 31.8594C5.78125 31.6406 5.8125 31.4844 5.8125 31.3906C5.84375 31.2656 5.875 31.0625 5.90625 30.7812C5.9375 30.4688 5.95312 30.25 5.95312 30.125C6.76562 20.2812 7.17188 13.125 7.17188 8.65625C7.17188 8.28125 6.98438 7.875 6.60938 7.4375C6.57812 7.40625 6.375 7.17188 6 6.73438C5.625 6.26562 5.3125 5.92187 5.0625 5.70312C4.8125 5.45312 4.40625 5.20313 3.84375 4.95312C3.28125 4.67188 2.67188 4.53125 2.01562 4.53125C1.39062 4.4375 1.07812 4.14062 1.07812 3.64062C1.07812 3.32813 1.125 3.09375 1.21875 2.9375C1.34375 2.75 1.45312 2.65625 1.54688 2.65625C1.64062 2.625 1.76562 2.60938 1.92188 2.60938H8.8125C9.375 2.60938 9.78125 2.8125 10.0312 3.21875L19.125 18.4062L24.7031 27.3125C24.8906 27.6875 25.1719 27.875 25.5469 27.875C25.8281 27.875 26.0469 27.7031 26.2031 27.3594L39.2344 3.03125C39.3906 2.75 39.6719 2.60938 40.0781 2.60938H47.0625C47.2188 2.60938 47.3281 2.625 47.3906 2.65625C47.4844 2.65625 47.5625 2.75 47.625 2.9375C47.7188 3.09375 47.7656 3.32813 47.7656 3.64062C47.7656 3.89063 47.7188 4.09375 47.625 4.25C47.5625 4.40625 47.4062 4.53125 47.1562 4.625C46.9375 4.71875 46.7031 4.79687 46.4531 4.85938C46.2031 4.89062 45.8438 4.96875 45.375 5.09375C44.9062 5.1875 44.4531 5.29688 44.0156 5.42188C43.2344 5.60938 42.8438 6.07812 42.8438 6.82812C42.9062 12.1406 42.9531 16.625 42.9844 20.2812C43.0469 23.9375 43.0781 26.3594 43.0781 27.5469C43.1094 28.7031 43.125 29.5781 43.125 30.1719V30.5C43.125 31.0312 43.1406 31.4219 43.1719 31.6719C43.2031 31.8906 43.3438 32.125 43.5938 32.375C43.8438 32.625 44.2344 32.7812 44.7656 32.8438C44.9844 32.875 45.25 32.9062 45.5625 32.9375C45.9062 32.9375 46.1562 32.9531 46.3125 32.9844C46.4688 32.9844 46.6562 33 46.875 33.0312C47.0938 33.0625 47.2344 33.1094 47.2969 33.1719C47.3906 33.2344 47.4844 33.3125 47.5781 33.4062C47.7031 33.5 47.7812 33.625 47.8125 33.7812C47.8438 33.9062 47.8594 34.0625 47.8594 34.25C47.8594 34.5625 47.7656 34.8125 47.5781 35C47.3906 35.1875 47.1562 35.2812 46.875 35.2812L45.9844 35.1875C45.3906 35.1562 44.5938 35.1094 43.5938 35.0469C42.625 35.0156 41.6562 35 40.6875 35C40.0625 35 39.4375 35 38.8125 35C38.1875 35.0312 37.6406 35.0625 37.1719 35.0938C36.7031 35.125 36.2656 35.1562 35.8594 35.1875C35.4844 35.2188 35.1875 35.2344 34.9688 35.2344C34.75 35.2656 34.625 35.2812 34.5938 35.2812ZM48.8906 25.2031C48.8906 21.9844 49.9062 19.3594 51.9375 17.3281C54 15.2969 56.4375 14.2812 59.25 14.2812C62.125 14.2812 64.5156 15.3125 66.4219 17.375C68.3281 19.4062 69.2812 22.0156 69.2812 25.2031C69.2812 28.4844 68.2812 31.0938 66.2812 33.0312C64.3125 34.9375 61.9062 35.8906 59.0625 35.8906C56.0625 35.8906 53.6094 34.8594 51.7031 32.7969C49.8281 30.7344 48.8906 28.2031 48.8906 25.2031ZM54.4219 31.1562C55.6406 32.75 57.2344 33.5469 59.2031 33.5469C61.1719 33.5469 62.7969 32.75 64.0781 31.1562C65.3594 29.5312 66 27.6094 66 25.3906C66 22.8906 65.2812 20.7969 63.8438 19.1094C62.4375 17.3906 60.7969 16.5312 58.9219 16.5312C57.3594 16.5312 55.9062 17.2188 54.5625 18.5938C53.25 19.9688 52.5938 22.0938 52.5938 24.9688C52.5938 27.4688 53.2031 29.5312 54.4219 31.1562ZM71.6719 18.4531C71.6719 17.5156 72.4219 16.5781 73.9219 15.6406C75.4531 14.6719 77.1562 14.1875 79.0312 14.1875C79.625 14.1875 80.2344 14.25 80.8594 14.375C81.4844 14.5 82.1875 14.7188 82.9688 15.0312C83.7812 15.3438 84.4531 15.8906 84.9844 16.6719C85.5469 17.4219 85.8906 18.3438 86.0156 19.4375C86.0781 20.1875 86.1094 20.7656 86.1094 21.1719V30.6406C86.1094 31.2031 86.2188 31.6562 86.4375 32C86.6562 32.3438 86.875 32.5625 87.0938 32.6562C87.3125 32.7188 87.5312 32.75 87.75 32.75C88.1875 32.75 88.5312 32.625 88.7812 32.375C89.0312 32.0938 89.2188 31.8281 89.3438 31.5781C89.5 31.2969 89.6719 31.1562 89.8594 31.1562C90.1406 31.1562 90.2812 31.3594 90.2812 31.7656C90.2812 32.5156 89.9375 33.3438 89.25 34.25C88.5625 35.125 87.6719 35.5625 86.5781 35.5625C86.1719 35.5625 85.7812 35.5 85.4062 35.375C85.0312 35.25 84.7188 35.0938 84.4688 34.9062C84.2188 34.6875 83.9844 34.4844 83.7656 34.2969C83.5781 34.1094 83.4219 33.9375 83.2969 33.7812L83.1562 33.5938C83.125 33.5938 83.1094 33.5938 83.1094 33.5938C83.1094 33.5625 83.0938 33.5469 83.0625 33.5469C83 33.5469 82.9531 33.5781 82.9219 33.6406C82.8906 33.7031 82.7812 33.8281 82.5938 34.0156C82.4062 34.2031 82.1406 34.4062 81.7969 34.625C80.3906 35.5 78.9062 35.9375 77.3438 35.9375C75.7188 35.9375 74.3906 35.4219 73.3594 34.3906C72.3594 33.3594 71.8594 32.0938 71.8594 30.5938V30.5469C71.8594 28.7344 72.5312 27.3125 73.875 26.2812C74.3438 25.9062 74.9531 25.5781 75.7031 25.2969C76.4531 24.9844 77.1875 24.75 77.9062 24.5938C78.6562 24.4375 79.3594 24.3125 80.0156 24.2188C80.6719 24.0938 81.2188 24.0156 81.6562 23.9844L82.3125 23.9375C82.5625 23.875 82.6875 23.6562 82.6875 23.2812V21.5469C82.6875 19.8906 82.3125 18.6094 81.5625 17.7031C80.7812 16.8594 79.8438 16.4375 78.75 16.4375C77.0625 16.4375 75.6875 17.5 74.625 19.625C74.3438 20 74 20.1875 73.5938 20.1875C73.0938 20.1875 72.6406 20.0312 72.2344 19.7188C71.8594 19.4062 71.6719 18.9844 71.6719 18.4531ZM78.4688 33.3125C79.1875 33.3125 79.8594 33.1562 80.4844 32.8438C81.1406 32.5312 81.5938 32.25 81.8438 32C82.0938 31.75 82.2969 31.5312 82.4531 31.3438C82.6406 31.0938 82.7344 30.7344 82.7344 30.2656V29.0938V27.125C82.7344 26.5312 82.7031 26.1562 82.6406 26C82.6094 25.8125 82.4844 25.7188 82.2656 25.7188C81.4844 25.7188 80.5 25.8438 79.3125 26.0938C78.1562 26.3438 77.2344 26.7969 76.5469 27.4531C75.7969 28.0781 75.4219 28.9531 75.4219 30.0781C75.4219 31.2656 75.75 32.1406 76.4062 32.7031C76.8438 33.1094 77.5312 33.3125 78.4688 33.3125ZM97.5 16.9062C97.5312 16.9062 97.875 16.6875 98.5312 16.25C99.1875 15.7812 99.9219 15.2812 100.734 14.75C101.547 14.2188 102.141 13.8906 102.516 13.7656C102.891 13.6406 103.359 13.5781 103.922 13.5781C104.797 13.5781 105.641 13.7812 106.453 14.1875C107.266 14.5625 107.672 15.0625 107.672 15.6875V15.7344C107.672 15.9219 107.609 16.1094 107.484 16.2969C107.359 16.4844 107.25 16.625 107.156 16.7188C107.062 16.8125 106.906 16.9531 106.688 17.1406L106.359 17.4219C106.328 17.4219 106.156 17.5469 105.844 17.7969C105.562 18.0156 105.312 18.1719 105.094 18.2656C104.875 18.3594 104.641 18.4062 104.391 18.4062C104.016 18.4062 103.578 18.2031 103.078 17.7969C102.609 17.3906 102.094 17.1875 101.531 17.1875C100.844 17.1875 100.109 17.4375 99.3281 17.9375C98.5469 18.4375 98.0469 18.8438 97.8281 19.1562C97.7031 19.3438 97.6406 19.6406 97.6406 20.0469V31.5312V31.7188C97.6406 32.625 98.0312 33.1094 98.8125 33.1719C99.125 33.2031 99.5469 33.2344 100.078 33.2656C101.047 33.3281 101.656 33.4219 101.906 33.5469C102.188 33.6406 102.328 33.9062 102.328 34.3438C102.328 34.9688 102.109 35.2812 101.672 35.2812C101.641 35.2812 101.531 35.2656 101.344 35.2344C101.188 35.2344 100.953 35.2188 100.641 35.1875C100.328 35.1562 99.9844 35.125 99.6094 35.0938C99.2344 35.0625 98.7812 35.0312 98.25 35C97.75 35 97.2656 35 96.7969 35C96.2969 35 95.7969 35 95.2969 35C94.7969 35.0312 94.3438 35.0625 93.9375 35.0938C93.5625 35.125 93.2188 35.1562 92.9062 35.1875C92.625 35.2188 92.3906 35.2344 92.2031 35.2344C92.0469 35.2656 91.9531 35.2812 91.9219 35.2812C91.3906 35.2812 91.125 35.0156 91.125 34.4844C91.125 34.2031 91.1875 34 91.3125 33.875C91.4375 33.7188 91.5625 33.625 91.6875 33.5938C91.8125 33.5312 92.0469 33.4844 92.3906 33.4531C92.7656 33.3906 93.0625 33.3281 93.2812 33.2656C93.875 33.1406 94.1719 32.7656 94.1719 32.1406V19.3906C94.1719 19.2031 94.1562 19.0625 94.125 18.9688C94.0938 18.8438 94 18.7188 93.8438 18.5938C93.7188 18.4375 93.5781 18.3125 93.4219 18.2188C93.2969 18.125 93.0312 17.9375 92.625 17.6562C92.2188 17.375 91.8438 17.1094 91.5 16.8594C91.4062 16.7656 91.3438 16.6562 91.3125 16.5312C91.3125 16.4062 91.9531 16.0469 93.2344 15.4531C94.3906 14.8906 95.4375 14.375 96.375 13.9062C96.4062 13.9062 96.4531 13.8906 96.5156 13.8594C96.6406 13.7969 96.7344 13.7656 96.7969 13.7656C97.1719 13.7656 97.3594 14.0938 97.3594 14.75V16.6719C97.3594 16.8281 97.4062 16.9062 97.5 16.9062ZM124.031 2.09375C125 2.09375 126.391 2.01563 128.203 1.85938C130.047 1.70312 131.438 1.625 132.375 1.625C135.844 1.625 138.5 2.26562 140.344 3.54688C142.312 4.98437 143.297 6.82812 143.297 9.07812C143.297 10.5469 142.875 11.9375 142.031 13.25C141.188 14.5625 140.094 15.6406 138.75 16.4844L138.609 16.625C138.609 16.6562 138.672 16.7031 138.797 16.7656C140.672 17.1094 142.25 18.0625 143.531 19.625C144.812 21.1875 145.453 23.0156 145.453 25.1094C145.453 27.2344 144.844 29.1094 143.625 30.7344C142.406 32.3281 140.984 33.4844 139.359 34.2031C137.766 34.9219 135.844 35.2812 133.594 35.2812C132.844 35.2812 131.75 35.2344 130.312 35.1406C128.875 35.0469 127.781 35 127.031 35C126.5 35 125.641 35.0156 124.453 35.0469C123.266 35.0781 122.297 35.0938 121.547 35.0938H121.453C121.266 35.0938 121.109 35.0781 120.984 35.0469C120.891 35.0156 120.781 34.9062 120.656 34.7188C120.562 34.5312 120.516 34.2656 120.516 33.9219C120.516 33.5469 120.625 33.3125 120.844 33.2188C121.094 33.125 121.672 33.0312 122.578 32.9375C122.859 32.9062 123.078 32.875 123.234 32.8438C123.453 32.8125 123.609 32.7812 123.703 32.75C123.828 32.6875 123.938 32.5938 124.031 32.4688C124.156 32.3125 124.219 32.1094 124.219 31.8594V5.60938C124.219 5.01563 124.047 4.64063 123.703 4.48438C123.391 4.29688 122.812 4.17188 121.969 4.10938C121.875 4.10938 121.797 4.10938 121.734 4.10938C121.172 4.10938 120.891 3.70313 120.891 2.89062C120.891 2.32812 121.172 2.04688 121.734 2.04688C121.766 2.04688 121.875 2.0625 122.062 2.09375C122.25 2.09375 122.516 2.09375 122.859 2.09375C123.234 2.09375 123.625 2.09375 124.031 2.09375ZM139.031 10.1094C139.031 9.45312 138.922 8.79688 138.703 8.14062C138.484 7.45313 138.125 6.76562 137.625 6.07812C137.125 5.39063 136.375 4.82813 135.375 4.39062C134.406 3.95312 133.266 3.73438 131.953 3.73438C130.172 3.73438 129.047 3.92188 128.578 4.29688C128.422 4.42187 128.344 4.625 128.344 4.90625V5V15.2656C128.344 15.6719 128.516 15.875 128.859 15.875H131.016H131.625C135 15.875 137.234 14.8594 138.328 12.8281C138.797 11.8906 139.031 10.9844 139.031 10.1094ZM132.047 33.0312C134.578 33.0312 136.734 32.3594 138.516 31.0156C140.297 29.6406 141.188 27.75 141.188 25.3438C141.188 23.75 140.719 22.2812 139.781 20.9375C138.875 19.5625 137.453 18.6719 135.516 18.2656C134.484 18.0469 133.141 17.9375 131.484 17.9375H129.047C128.578 17.9375 128.344 18.1875 128.344 18.6875V31.0625C128.344 31.4062 128.359 31.6719 128.391 31.8594C128.453 32.0469 128.594 32.25 128.812 32.4688C129.031 32.6562 129.359 32.7812 129.797 32.8438C130.734 32.9688 131.484 33.0312 132.047 33.0312ZM147.797 25.2031C147.797 21.9844 148.812 19.3594 150.844 17.3281C152.906 15.2969 155.344 14.2812 158.156 14.2812C161.031 14.2812 163.422 15.3125 165.328 17.375C167.234 19.4062 168.188 22.0156 168.188 25.2031C168.188 28.4844 167.188 31.0938 165.188 33.0312C163.219 34.9375 160.812 35.8906 157.969 35.8906C154.969 35.8906 152.516 34.8594 150.609 32.7969C148.734 30.7344 147.797 28.2031 147.797 25.2031ZM153.328 31.1562C154.547 32.75 156.141 33.5469 158.109 33.5469C160.078 33.5469 161.703 32.75 162.984 31.1562C164.266 29.5312 164.906 27.6094 164.906 25.3906C164.906 22.8906 164.188 20.7969 162.75 19.1094C161.344 17.3906 159.703 16.5312 157.828 16.5312C156.266 16.5312 154.812 17.2188 153.469 18.5938C152.156 19.9688 151.5 22.0938 151.5 24.9688C151.5 27.4688 152.109 29.5312 153.328 31.1562ZM170.203 25.2031C170.203 21.9844 171.219 19.3594 173.25 17.3281C175.312 15.2969 177.75 14.2812 180.562 14.2812C183.438 14.2812 185.828 15.3125 187.734 17.375C189.641 19.4062 190.594 22.0156 190.594 25.2031C190.594 28.4844 189.594 31.0938 187.594 33.0312C185.625 34.9375 183.219 35.8906 180.375 35.8906C177.375 35.8906 174.922 34.8594 173.016 32.7969C171.141 30.7344 170.203 28.2031 170.203 25.2031ZM175.734 31.1562C176.953 32.75 178.547 33.5469 180.516 33.5469C182.484 33.5469 184.109 32.75 185.391 31.1562C186.672 29.5312 187.312 27.6094 187.312 25.3906C187.312 22.8906 186.594 20.7969 185.156 19.1094C183.75 17.3906 182.109 16.5312 180.234 16.5312C178.672 16.5312 177.219 17.2188 175.875 18.5938C174.562 19.9688 173.906 22.0938 173.906 24.9688C173.906 27.4688 174.516 29.5312 175.734 31.1562ZM202.312 34.4375C202.312 34.0312 202.422 33.75 202.641 33.5938C202.891 33.4062 203.156 33.3281 203.438 33.3594C203.75 33.3594 204.016 33.2969 204.234 33.1719C204.484 33.0469 204.609 32.8281 204.609 32.5156C204.609 32.2031 204.188 31.4531 203.344 30.2656C202.5 29.0781 201.688 28 200.906 27.0312C200.156 26.0625 199.734 25.5312 199.641 25.4375C199.641 25.375 199.578 25.3438 199.453 25.3438C199.328 25.3438 199.078 25.5469 198.703 25.9531C198.328 26.3594 198.125 26.625 198.094 26.75C198.062 26.8438 198.047 27.0156 198.047 27.2656V32.2344C198.047 32.6719 198.156 32.9375 198.375 33.0312C198.594 33.125 199.219 33.2344 200.25 33.3594C200.938 33.5156 201.281 33.8594 201.281 34.3906C201.281 34.9219 201.062 35.1875 200.625 35.1875C200.562 35.1875 200.375 35.1719 200.062 35.1406C199.75 35.1094 199.312 35.0781 198.75 35.0469C198.188 35.0156 197.578 35 196.922 35C196.266 35 195.656 35.0156 195.094 35.0469C194.531 35.0781 194.078 35.1094 193.734 35.1406C193.422 35.1719 193.234 35.1875 193.172 35.1875C192.609 35.1875 192.328 34.9062 192.328 34.3438C192.328 33.9688 192.453 33.7188 192.703 33.5938C192.953 33.4375 193.219 33.3594 193.5 33.3594C193.812 33.3594 194.094 33.2812 194.344 33.125C194.625 32.9688 194.781 32.7031 194.812 32.3281V6.45312C194.812 5.95313 194.609 5.5625 194.203 5.28125C192.797 4.3125 192.062 3.79688 192 3.73438L191.812 3.35938C191.812 3.04688 192.141 2.78125 192.797 2.5625C195.828 1.21875 197.406 0.546875 197.531 0.546875C197.875 0.546875 198.047 0.8125 198.047 1.34375V24.0312C198.047 24.1562 198.094 24.2188 198.188 24.2188C198.312 24.2188 198.406 24.1562 198.469 24.0312C198.938 23.5625 199.406 23.0938 199.875 22.625C200.375 22.125 200.75 21.75 201 21.5C201.281 21.2188 201.562 20.9375 201.844 20.6562C202.125 20.375 202.328 20.1562 202.453 20C202.609 19.8438 202.75 19.6875 202.875 19.5312C203 19.375 203.078 19.25 203.109 19.1562C203.141 19.0312 203.172 18.9062 203.203 18.7812C203.234 18.6562 203.25 18.5156 203.25 18.3594C203.25 17.8281 203.031 17.4062 202.594 17.0938C202.188 16.75 201.984 16.5 201.984 16.3438V15.8281C201.984 15.4219 202.328 15.2188 203.016 15.2188H205.781C206.719 15.2188 207.578 15.2031 208.359 15.1719C209.172 15.1406 209.797 15.125 210.234 15.125C210.703 15.0938 210.984 15.0781 211.078 15.0781C211.547 15.0781 211.781 15.375 211.781 15.9688C211.781 16.3438 211.703 16.5938 211.547 16.7188C211.391 16.8438 211.016 16.9375 210.422 17C209.859 17.0625 209.391 17.1406 209.016 17.2344C208.328 17.4219 207.594 17.7969 206.812 18.3594C206.031 18.9219 205.391 19.4531 204.891 19.9531C204.391 20.4531 203.438 21.4219 202.031 22.8594C201.812 23.0781 201.703 23.2188 201.703 23.2812C201.703 23.4062 203.562 25.6875 207.281 30.125C207.844 30.7812 208.297 31.2969 208.641 31.6719C208.984 32.0156 209.469 32.375 210.094 32.75C210.75 33.125 211.438 33.3594 212.156 33.4531C212.688 33.5156 212.953 33.7969 212.953 34.2969C212.953 34.9531 212.688 35.2812 212.156 35.2812C212.125 35.2812 212.016 35.2656 211.828 35.2344C211.672 35.2344 211.453 35.2188 211.172 35.1875C210.891 35.1562 210.562 35.125 210.188 35.0938C209.844 35.0625 209.438 35.0312 208.969 35C208.5 35 208.031 35 207.562 35C207.094 35 206.625 35 206.156 35C205.688 35.0312 205.266 35.0625 204.891 35.0938C204.547 35.125 204.234 35.1562 203.953 35.1875C203.672 35.2188 203.438 35.2344 203.25 35.2344C203.094 35.2656 203 35.2812 202.969 35.2812C202.531 35.2812 202.312 35.0156 202.312 34.4844V34.4375ZM214.828 20.1875C214.828 18.6875 215.453 17.375 216.703 16.25C217.984 15.0938 219.656 14.5156 221.719 14.5156C222.156 14.5156 222.547 14.5469 222.891 14.6094C223.266 14.6406 223.547 14.6719 223.734 14.7031C223.953 14.7344 224.078 14.75 224.109 14.75C224.234 14.75 224.422 14.6719 224.672 14.5156C224.922 14.3594 225.141 14.2812 225.328 14.2812C225.703 14.2812 225.953 14.5781 226.078 15.1719C226.172 15.6406 226.297 16.2969 226.453 17.1406C226.609 17.9844 226.734 18.7031 226.828 19.2969C226.953 19.8594 227.016 20.1719 227.016 20.2344C227.016 20.7344 226.641 20.9844 225.891 20.9844C225.578 20.9844 225.344 20.875 225.188 20.6562C225.062 20.4062 224.938 20.0625 224.812 19.625C224.688 19.1875 224.547 18.8594 224.391 18.6406C224.047 18.1719 223.484 17.75 222.703 17.375C221.953 16.9688 221.203 16.7656 220.453 16.7656C219.609 16.7656 218.891 17 218.297 17.4688C217.703 17.9375 217.406 18.5469 217.406 19.2969C217.406 20.8906 218.672 22.0469 221.203 22.7656C221.516 22.8594 221.984 22.9844 222.609 23.1406C223.234 23.2656 223.719 23.375 224.062 23.4688C224.406 23.5625 224.812 23.7031 225.281 23.8906C225.781 24.0781 226.219 24.3125 226.594 24.5938C226.969 24.875 227.328 25.2188 227.672 25.625C228.641 26.75 229.125 28.0156 229.125 29.4219C229.125 31.1094 228.453 32.6094 227.109 33.9219C225.797 35.2344 224.031 35.8906 221.812 35.8906C220.594 35.8906 219.344 35.6875 218.062 35.2812C216.812 34.875 215.859 34.2812 215.203 33.5C214.828 33.0938 214.641 32.5469 214.641 31.8594C214.641 31.3594 214.625 30.7969 214.594 30.1719C214.594 29.5469 214.594 29.1562 214.594 29C214.594 28.375 214.641 27.9688 214.734 27.7812C214.859 27.5938 215.094 27.5 215.438 27.5C215.781 27.5 216 27.6406 216.094 27.9219C216.188 28.2031 216.25 28.625 216.281 29.1875C216.312 29.7188 216.406 30.1562 216.562 30.5C216.844 31.125 217.5 31.75 218.531 32.375C219.594 33 220.75 33.3125 222 33.3125C223.094 33.3125 224.016 33.0156 224.766 32.4219C225.516 31.8281 225.891 31.0625 225.891 30.125C225.891 29.5312 225.75 29.0156 225.469 28.5781C225.219 28.1094 224.812 27.7344 224.25 27.4531C223.688 27.1406 223.234 26.9219 222.891 26.7969C222.547 26.6406 222 26.4688 221.25 26.2812L220.125 26.0469C216.594 25.0156 214.828 23.0625 214.828 20.1875Z" fill="black"/>
</svg>
